<?xml version="1.0" encoding="utf-8"?>
<!-- Generator: Adobe Illustrator 18.1.1, SVG Export Plug-In . SVG Version: 6.00 Build 0)  -->
<svg version="1.1" id="Layer_1" xmlns="http://www.w3.org/2000/svg" xmlns:xlink="http://www.w3.org/1999/xlink" x="0px" y="0px"
	 viewBox="0 0 158 198" enable-background="new 0 0 158 198" xml:space="preserve">
<path fill="#303335" d="M71.7,193.5c-2.1,0-4.2-0.4-6.2-1.1c-6.5-2.5-19.6-8.6-35.2-22.1c-12.6-10.9-19.9-21.6-23.1-27
	c-1.6-2.7-2.4-5.7-2.4-8.8V48.1c0-6.7,3.9-12.9,10-15.7C24.8,27.8,45.6,20,72.5,20c31.1,0,50.2,7.6,58.9,12.1
	c5.7,3,9.2,8.9,9.2,15.3V134c0,3.5-1.1,6.9-3.1,9.8c-4.2,6-13.1,17.7-25.7,27.9c-11.6,9.4-25.4,16.6-32.7,20.1
	C76.8,193,74.3,193.5,71.7,193.5z M72.5,30.9c-24.8,0-43.9,7.2-53.1,11.4c-2.2,1-3.6,3.3-3.6,5.8v86.5c0,1.2,0.3,2.3,0.9,3.2
	c2.9,4.8,9.4,14.4,20.9,24.3c14.3,12.4,26.2,17.9,32,20.1c1.7,0.6,3.5,0.6,5-0.2c6.8-3.2,19.7-10,30.5-18.7
	c11.6-9.4,19.8-20.1,23.6-25.7c0.7-1.1,1.1-2.3,1.1-3.6V47.4c0-2.4-1.3-4.6-3.4-5.7C118.6,37.7,101.2,30.9,72.5,30.9z"/>
<path fill="#303335" d="M122.4,127.4c0,2-0.6,3.9-1.7,5.5c-3,4.4-9.9,13.8-19.7,21.9c-9,7.5-19.7,13.2-25.1,15.8
	c-2.3,1.1-5,1.2-7.4,0.3c-5.2-2-15-6.8-26.7-17.2c-9.7-8.6-15.2-17-17.5-21c-0.9-1.5-1.3-3.2-1.3-4.9V57.1c0-3.8,2.1-7.2,5.4-8.8
	c7.8-3.7,23.7-9.7,44.1-9.7c23.5,0,37.9,5.7,44.9,9.4c3.1,1.7,5,5,5,8.6V127.4z"/>
<polygon fill="#FFFFFF" points="20.8,53.6 125.6,106.8 56.2,147.1 20.8,120.3 "/>
<g>
	<path fill="#303335" d="M95.7,89.4c0.5,0.3-8.2,1.2-8.2,1.2s-3-4.1-4.3-12.6c-0.4-2.8,4.3,7.4,4.3,7.4s-1.8-10.3-1.7-14.8
		c0.2-4.5,3.2,12,3.2,12s-0.8-12.9,1.2-19.8c2-6.8,7.3-10.3,7.3-10.3l1.7,9.7l1-13c0,0,20.2-21.3,21.9-24.1s0.9,8.6,0.5,12.3
		c0,0-1.7-10.1,12.6-23c0,0-0.5,7.3,0,9.2c0,0,0.4-6.8,4.4-11s11-4.2,11-4.2s-0.2,16.4-9.3,30.1l-9.2,13.4l-11.7,2.2l11.6,0.7
		c0,0-12.8,15.7-16.5,19.1c-5.5,5.1-16.1,8.9-19.6,10c0,0,6.2-0.3,6.7,0.3C103.2,85,90,89.1,90,89.1S94.6,88.7,95.7,89.4z"/>
	<path fill="#FFFFFF" d="M150.5,8.4L150.5,8.4 M150.5,8.4c0,0-0.2,16.4-9.3,30.1l-9.2,13.4l-11.7,2.2l11.6,0.7
		c0,0-12.8,15.7-16.5,19.1c-5.5,5.1-16.1,8.9-19.6,10c0,0,1.7-0.1,3.3-0.1c1.6,0,3.2,0.1,3.4,0.4C103.2,85,90,89.1,90,89.1
		s1.2-0.1,2.6-0.1c1.2,0,2.6,0.1,3.1,0.4c0.5,0.3-8.2,1.2-8.2,1.2s-3-4.1-4.3-12.6c-0.1-0.3,0-0.5,0-0.5c0.6,0,4.3,7.9,4.3,7.9
		s-1.8-10.3-1.7-14.8c0-0.5,0.1-0.8,0.2-0.8c0.7,0,3,12.8,3,12.8s-0.8-12.9,1.2-19.8c2-6.8,7.3-10.3,7.3-10.3l1.7,9.7l1-13
		c0,0,20.2-21.3,21.9-24.1c0.2-0.3,0.3-0.4,0.5-0.4c0.7,0,0.6,4.1,0.4,7.8c-0.7,3.1-0.4,4.9-0.4,4.9c0.1-1.1,0.3-3,0.4-4.9
		c1-4.2,3.9-10.7,12.1-18.1c0,0-0.5,7.3,0,9.2c0,0,0.4-6.8,4.4-11C143.5,8.5,150.5,8.4,150.5,8.4 M135.1,14.4L135.1,14.4 M150.5,6.6
		L150.5,6.6C150.5,6.6,150.5,6.6,150.5,6.6c-0.4,0-7.8,0.2-12.3,4.8c-0.6,0.6-1.1,1.3-1.6,2c-0.3-0.5-0.9-0.8-1.5-0.8c0,0,0,0,0,0
		c0,0,0,0-0.1,0c-0.4,0-0.9,0.2-1.2,0.5c-4.5,4-7.4,7.8-9.4,11.2c-0.1-0.4-0.3-0.5-0.5-0.7c-0.4-0.4-0.9-0.6-1.5-0.6
		c-0.6,0-1.4,0.2-2,1.3c-1.1,1.9-13.9,15.6-21.6,23.7c-0.3,0.3-0.5,0.7-0.5,1.1l-0.1,1.8c-0.2-0.1-0.5-0.1-0.7-0.1
		c-0.3,0-0.7,0.1-1,0.3c-0.2,0.2-6,3.9-8.1,11.3c-0.5,1.8-0.9,4-1.1,6.2C87,68.2,86.6,68,86,68c-0.6,0-1.9,0.2-2,2.5
		c0,1.4,0.1,3.4,0.3,5.5c-0.4-0.3-0.7-0.3-1.1-0.3c-0.5,0-1.1,0.3-1.4,0.7c-0.6,0.7-0.5,1.6-0.4,1.9c1.4,8.8,4.5,13.2,4.6,13.4
		c0.3,0.5,0.9,0.7,1.5,0.7c0.1,0,0.1,0,0.2,0c9.4-1,9.5-1.2,9.8-2.6c0.1-0.4,0-0.8-0.1-1.2c6.4-2.3,6.7-3.1,6.9-3.8
		c0.2-0.6,0.1-1.3-0.3-1.8c-0.1-0.1-0.1-0.1-0.2-0.2c4.5-1.9,9.6-4.6,12.9-7.6c3.8-3.5,16.2-18.6,16.7-19.3c0.4-0.5,0.5-1.3,0.3-1.9
		c-0.1-0.3-0.3-0.5-0.5-0.7c0.2-0.1,0.3-0.3,0.4-0.4l9.2-13.4c9-13.6,9.6-29.2,9.6-31c0-0.1,0-0.1,0-0.2
		C152.3,7.4,151.5,6.6,150.5,6.6L150.5,6.6z M150.5,10.2L150.5,10.2L150.5,10.2L150.5,10.2z"/>
</g>
<path fill="#303335" d="M79.6,110.3c-0.1,0-0.2,0-0.2,0c-0.5-0.1-0.8-0.6-0.6-1.1c0-0.1,2.4-9,8-19c3.3-5.9,7-11,11.1-15.3
	c0.3-0.4,0.9-0.4,1.3,0c0.4,0.3,0.4,0.9,0,1.3c-4,4.2-7.6,9.2-10.8,14.9c-5.5,9.9-7.8,18.5-7.9,18.6C80.3,110.1,80,110.3,79.6,110.3
	z"/>
<g>
	<ellipse fill="#B22831" cx="97.4" cy="109.5" rx="12" ry="6.4"/>
	<polygon fill="#B22831" points="98,114.5 110.4,123.2 111.3,118.8 119.4,120.4 105.4,110 	"/>
</g>
</svg>
